<svg height="24" viewBox="0 0 24 24" width="24" xmlns="http://www.w3.org/2000/svg"
     xmlns:xlink="http://www.w3.org/1999/xlink">
  <defs>
    <path
      d="M17.653 6.338a7.974 7.974 0 0 0-5.657-2.34c-2.049 0-4.098.78-5.657 2.34-3.12 3.119-3.12 8.195 0 11.314 3.12 3.12 8.195 3.12 11.314 0 3.12-3.12 3.12-8.195 0-11.314m1.414 12.729a9.971 9.971 0 0 1-7.07 2.924 9.973 9.973 0 0 1-7.073-2.924c-3.899-3.9-3.899-10.244 0-14.143 3.9-3.898 10.245-3.898 14.143 0 3.9 3.899 3.9 10.243 0 14.143M15.545 9.86l-2.135 2.135 2.135 2.135a1 1 0 0 1-1.414 1.414l-2.135-2.135-2.135 2.135a.997.997 0 0 1-1.414 0 .999.999 0 0 1 0-1.414l2.135-2.135L8.447 9.86a.999.999 0 1 1 1.414-1.414l2.135 2.135 2.135-2.135a1 1 0 0 1 1.414 1.414"
      id="close-outline"/>
  </defs>
  <use fill="currentColor" fill-rule="evenodd" xlink:href="#close-outline"/>
</svg>
